<?xml version="1.0" encoding="UTF-8"?>
<svg id="svg80" xmlns="http://www.w3.org/2000/svg" xmlns:svg="http://www.w3.org/2000/svg" xmlns:sodipodi="http://sodipodi.sourceforge.net/DTD/sodipodi-0.dtd" xmlns:inkscape="http://www.inkscape.org/namespaces/inkscape" version="1.1" viewBox="0 0 567.8 285.6">
  <defs>
    <style>
      .cls-1, .cls-2, .cls-3, .cls-4, .cls-5, .cls-6, .cls-7, .cls-8, .cls-9, .cls-10, .cls-11 {
        stroke: #ececed;
      }

      .cls-1, .cls-2, .cls-3, .cls-4, .cls-5, .cls-6, .cls-9, .cls-10, .cls-11, .cls-12, .cls-13, .cls-14 {
        fill-rule: evenodd;
      }

      .cls-1, .cls-3, .cls-4, .cls-5, .cls-9, .cls-10, .cls-11, .cls-13 {
        fill: #bfb158;
      }

      .cls-1, .cls-6, .cls-8 {
        stroke-width: 2.1px;
      }

      .cls-2 {
        fill: #b1b3b4;
      }

      .cls-2, .cls-3, .cls-9 {
        stroke-width: 4.3px;
      }

      .cls-3, .cls-8 {
        stroke-linecap: round;
        stroke-linejoin: round;
      }

      .cls-4 {
        stroke-width: 4px;
      }

      .cls-5 {
        stroke-width: 4px;
      }

      .cls-6 {
        fill: #e30016;
      }

      .cls-7 {
        stroke-width: 1.7px;
      }

      .cls-7, .cls-8 {
        fill: none;
      }

      .cls-10 {
        stroke-width: 4.3px;
      }

      .cls-11 {
        stroke-width: 4.3px;
      }

      .cls-12 {
        fill: #1b1918;
      }

      .cls-12, .cls-13, .cls-14 {
        stroke-width: 0px;
      }

      .cls-14 {
        fill: #fff;
      }
    </style>
  </defs>
  <sodipodi:namedview id="namedview80" bordercolor="#000000" borderopacity="0.25" inkscape:deskcolor="#d1d1d1" inkscape:document-units="in" inkscape:pagecheckerboard="0" inkscape:pageopacity="0.0" inkscape:showpageshadow="2" pagecolor="#ffffff"/>
  <path id="path1" class="cls-12" d="M0,228.4h567.8v-37.6H0v37.6Z"/>
  <path id="path2" class="cls-12" d="M0,153.7h567.8v-37.6H0v37.6Z"/>
  <path id="path3" class="cls-12" d="M0,79.1h567.8v-37.6H0v37.6Z"/>
  <g id="Layer1000">
    <path id="path4" class="cls-14" d="M127.5,276.4v-.5c1-.3,1.7-.5,2-.8.4-.2.7-.6,1-1.1.3-.5.4-1,.4-1.5s-.3-1.3-.8-1.8c-.5-.5-1.2-.8-1.9-.8-1.2,0-2.2.6-3.1,1.9l-.5-.2c.6-1.4,1.4-2.5,2.4-3.2,1-.7,2-1.1,3.2-1.1s2.2.4,3,1.1c.8.7,1.2,1.6,1.2,2.6s-.2,1.3-.5,1.9c-.4.6-.9,1.1-1.7,1.6,1,.5,1.8,1.1,2.3,1.8.5.7.8,1.6.8,2.7,0,1.8-.7,3.4-2,4.6-1.3,1.3-3.1,1.9-5.3,1.9s-2.6-.2-3.2-.7c-.5-.3-.7-.8-.7-1.3s.1-.7.4-1c.3-.3.6-.4,1-.4s.5,0,.8.2c.1,0,.6.4,1.5,1.1.8.7,1.6,1,2.3,1s1.2-.2,1.6-.8c.5-.5.7-1.1.7-1.9,0-1.2-.4-2.3-1.2-3.3-.8-1-2-1.7-3.6-2.1Z"/>
    <path id="path5" class="cls-14" d="M150.4,268.7v13.6c0,.7,0,1.2.1,1.3,0,.2.2.3.3.4.2.1.6.2,1,.2,1.4,0,2.5-.5,3.3-1.5,1-1.3,1.5-3.4,1.5-6.1s-.4-4-1.1-5.4c-.6-1-1.3-1.8-2.1-2.1-.6-.3-1.6-.4-3.1-.4ZM143.7,285.2v-.5h.6c.5,0,.9,0,1.2-.2.3-.2.5-.4.6-.6,0-.2.1-.7.1-1.6v-11.5c0-.9,0-1.4-.1-1.7,0-.2-.3-.4-.6-.6-.3-.2-.7-.3-1.2-.3h-.6v-.5h7.8c2.1,0,3.8.3,5,.9,1.6.7,2.7,1.7,3.5,3.2.8,1.4,1.2,3,1.2,4.8s-.2,2.4-.6,3.4c-.4,1-.9,1.9-1.5,2.6-.6.7-1.3,1.2-2.2,1.6-.8.4-1.8.7-3,.9-.5.1-1.3.2-2.5.2h-7.8Z"/>
    <path id="path6" class="cls-14" d="M169.6,268.7v7.1h.3c1.1,0,1.9-.3,2.4-1,.5-.7.8-1.7,1-3.1h.5v9.1h-.5c-.1-1-.3-1.8-.7-2.4-.3-.6-.7-1.1-1.2-1.3-.4-.2-1.1-.3-1.9-.3v4.9c0,1,0,1.5.1,1.8,0,.2.2.4.5.5.2.1.6.2,1.1.2h1c1.6,0,2.9-.4,3.9-1.1,1-.8,1.7-1.9,2.1-3.5h.5l-.8,5.5h-15.1v-.5h.6c.5,0,.9,0,1.2-.3.2-.1.4-.3.5-.6,0-.2.1-.7.1-1.6v-11.5c0-.8,0-1.3,0-1.5,0-.3-.2-.5-.5-.7-.3-.2-.8-.4-1.3-.4h-.6v-.5h14.6v5.2h-.5c-.2-1.3-.6-2.2-1-2.7-.5-.5-1.1-1-1.9-1.2-.5-.2-1.4-.2-2.7-.2h-1.8Z"/>
    <path id="path7" class="cls-14" d="M193.8,268.7v7.2h.5c.8,0,1.4-.1,1.9-.3.5-.2.9-.6,1.2-1.2.3-.6.6-1.3.7-2.2h.4v8.8h-.4c-.2-1.7-.6-2.7-1.3-3.3-.7-.5-1.5-.8-2.5-.8h-.5v5.3c0,.9,0,1.5.1,1.7,0,.2.3.4.6.6.3.2.7.3,1.2.3h.6v.5h-9.1v-.5h.6c.5,0,.9,0,1.2-.3.2-.1.4-.3.5-.6,0-.2.1-.7.1-1.6v-11.5c0-.9,0-1.4-.1-1.7,0-.2-.3-.4-.6-.6-.3-.2-.7-.3-1.2-.3h-.6v-.5h14.7v5h-.5c-.1-1.2-.4-2-.9-2.6-.5-.6-1.2-1-2.1-1.2-.5-.1-1.5-.2-2.9-.2h-1.6Z"/>
    <path id="path8" class="cls-14" d="M209.9,268.7v7.1h.3c1.1,0,1.9-.3,2.4-1,.5-.7.8-1.7,1-3.1h.5v9.1h-.5c-.1-1-.3-1.8-.7-2.4-.3-.6-.7-1.1-1.2-1.3-.4-.2-1.1-.3-1.9-.3v4.9c0,1,0,1.5.1,1.8,0,.2.2.4.5.5.2.1.6.2,1.1.2h1c1.6,0,2.9-.4,3.9-1.1,1-.8,1.7-1.9,2.1-3.5h.5l-.8,5.5h-15.1v-.5h.6c.5,0,.9,0,1.2-.3.2-.1.4-.3.5-.6,0-.2.1-.7.1-1.6v-11.5c0-.8,0-1.3,0-1.5,0-.3-.2-.5-.5-.7-.3-.2-.8-.4-1.3-.4h-.6v-.5h14.6v5.2h-.5c-.2-1.3-.6-2.2-1-2.7-.4-.5-1.1-1-1.9-1.2-.5-.2-1.4-.2-2.7-.2h-1.8Z"/>
    <path id="path9" class="cls-14" d="M239,267.7v.5c-.6.1-1.2.4-1.7,1-.4.4-.9,1.4-1.6,3l-6,13.3h-.4l-6-13.9c-.7-1.7-1.2-2.7-1.4-2.9-.2-.3-.7-.5-1.4-.6v-.5h8.4v.5h-.3c-.8,0-1.3,0-1.5.3-.2.1-.3.3-.3.6s0,.3.1.5c0,.2.3.8.7,1.7l3.7,8.7,3.4-7.7c.4-.9.7-1.6.8-1.9,0-.3.1-.6.1-.8s0-.5-.2-.7c-.1-.2-.3-.3-.6-.5-.4-.1-.9-.2-1.5-.2v-.5h5.7Z"/>
    <path id="path10" class="cls-14" d="M246.5,268.7v7.1h.3c1.1,0,1.9-.3,2.4-1,.5-.7.8-1.7,1-3.1h.5v9.1h-.5c-.1-1-.3-1.8-.7-2.4-.3-.6-.7-1.1-1.2-1.3-.4-.2-1.1-.3-1.9-.3v4.9c0,1,0,1.5.1,1.8,0,.2.2.4.5.5.2.1.6.2,1.1.2h1c1.6,0,2.9-.4,3.9-1.1,1-.8,1.7-1.9,2.1-3.5h.5l-.8,5.5h-15.1v-.5h.6c.5,0,.9,0,1.2-.3.2-.1.4-.3.5-.6,0-.2.1-.7.1-1.6v-11.5c0-.8,0-1.3,0-1.5,0-.3-.2-.5-.5-.7-.3-.2-.8-.4-1.3-.4h-.6v-.5h14.6v5.2h-.5c-.2-1.3-.6-2.2-1-2.7-.4-.5-1.1-1-1.9-1.2-.5-.2-1.4-.2-2.7-.2h-1.8Z"/>
    <path id="path11" class="cls-14" d="M263.9,268.6v7.6h.7c1.2,0,2.1-.1,2.7-.3.6-.2,1.1-.6,1.4-1.2.3-.6.5-1.3.5-2.2,0-1.3-.3-2.3-.9-2.9-.6-.6-1.6-1-3-1h-1.4ZM263.9,277.2v4.9c0,.9,0,1.5.2,1.8.1.2.3.4.6.6.3.1.8.2,1.6.2v.5h-8.9v-.5c.8,0,1.4,0,1.6-.2.3-.2.5-.3.6-.6.1-.2.2-.8.2-1.8v-11.3c0-.9,0-1.5-.2-1.8-.1-.2-.3-.4-.6-.6-.3-.1-.8-.2-1.6-.2v-.5h8.1c2.1,0,3.7.1,4.6.4,1,.3,1.8.8,2.4,1.6.6.8.9,1.7.9,2.8s-.5,2.4-1.4,3.2c-.6.5-1.4.9-2.5,1.2l4.2,5.9c.5.8.9,1.2,1.2,1.4.4.3.8.4,1.2.4v.5h-5.5l-5.6-8h-1.1Z"/>
    <path id="path12" class="cls-14" d="M283.1,268.7v7.1h.3c1.1,0,1.9-.3,2.4-1,.5-.7.8-1.7,1-3.1h.5v9.1h-.5c-.1-1-.3-1.8-.7-2.4-.3-.6-.7-1.1-1.2-1.3-.4-.2-1.1-.3-1.9-.3v4.9c0,1,0,1.5.1,1.8,0,.2.2.4.5.5.2.1.6.2,1.1.2h1c1.6,0,2.9-.4,3.9-1.1,1-.8,1.7-1.9,2.1-3.5h.5l-.8,5.5h-15.1v-.5h.6c.5,0,.9,0,1.2-.3.2-.1.4-.3.5-.6,0-.2.1-.7.1-1.6v-11.5c0-.8,0-1.3,0-1.5,0-.3-.2-.5-.5-.7-.3-.2-.8-.4-1.3-.4h-.6v-.5h14.6v5.2h-.5c-.2-1.3-.6-2.2-1-2.7-.5-.5-1.1-1-1.9-1.2-.5-.2-1.4-.2-2.7-.2h-1.8Z"/>
    <path id="path13" class="cls-14" d="M303.1,284.7v.5h-9.1v-.5h.6c.5,0,.9,0,1.2-.3.2-.1.4-.3.5-.6,0-.2.1-.7.1-1.6v-11.5c0-.9,0-1.4-.1-1.7,0-.2-.3-.4-.6-.6-.3-.2-.7-.3-1.2-.3h-.6v-.5h9.1v.5h-.6c-.5,0-.9,0-1.2.3-.2.1-.4.3-.5.6,0,.2-.1.7-.1,1.6v11.5c0,.9,0,1.5.1,1.7,0,.2.3.4.6.6.3.2.7.3,1.2.3h.6Z"/>
    <path id="path14" class="cls-14" d="M310.7,268.6v7.6h.7c1.2,0,2.1-.1,2.7-.3.6-.2,1.1-.6,1.4-1.2.3-.6.5-1.3.5-2.2,0-1.3-.3-2.3-.9-2.9-.6-.6-1.6-1-3-1h-1.4ZM310.7,277.2v4.9c0,.9,0,1.5.2,1.8.1.2.3.4.6.6.3.1.8.2,1.6.2v.5h-8.9v-.5c.8,0,1.4,0,1.6-.2.3-.2.5-.3.6-.6.1-.2.2-.8.2-1.8v-11.3c0-.9,0-1.5-.2-1.8-.1-.2-.3-.4-.6-.6-.3-.1-.8-.2-1.6-.2v-.5h8.1c2.1,0,3.7.1,4.6.4,1,.3,1.8.8,2.4,1.6.6.8.9,1.7.9,2.8s-.5,2.4-1.4,3.2c-.6.5-1.4.9-2.5,1.2l4.2,5.9c.5.8.9,1.2,1.2,1.4.4.3.8.4,1.2.4v.5h-5.5l-5.6-8h-1.1Z"/>
    <path id="path15" class="cls-14" d="M333.1,268.3c-1.6,0-2.8.8-3.6,2.4-.7,1.3-1,3.3-1,5.8s.5,5.2,1.6,6.6c.7,1,1.7,1.5,3.1,1.5s1.6-.2,2.2-.6c.8-.5,1.3-1.4,1.8-2.6.4-1.2.6-2.8.6-4.7s-.2-4-.6-5.2c-.4-1.1-1-2-1.6-2.4-.7-.5-1.4-.7-2.3-.7ZM332.9,267.5c2.8-.1,5,.7,6.8,2.4,1.7,1.7,2.6,3.9,2.6,6.5s-.6,4.2-1.9,5.8c-1.7,2.2-4.1,3.3-7.3,3.3s-5.6-1.1-7.3-3.2c-1.4-1.7-2-3.7-2-6s.9-4.7,2.6-6.5c1.8-1.7,3.9-2.5,6.5-2.4Z"/>
    <path id="path16" class="cls-14" d="M356.8,268.7v13.6c0,.7,0,1.2.1,1.3,0,.2.2.3.3.4.2.1.6.2,1,.2,1.4,0,2.5-.5,3.3-1.5,1-1.3,1.5-3.4,1.5-6.1s-.4-4-1.1-5.4c-.6-1-1.3-1.8-2.1-2.1-.6-.3-1.6-.4-3.1-.4ZM350.2,285.2v-.5h.6c.5,0,.9,0,1.2-.2.3-.2.5-.4.6-.6,0-.2.1-.7.1-1.6v-11.5c0-.9,0-1.4-.1-1.7,0-.2-.3-.4-.6-.6-.3-.2-.7-.3-1.2-.3h-.6v-.5h7.8c2.1,0,3.8.3,5,.9,1.6.7,2.7,1.7,3.5,3.2.8,1.4,1.2,3,1.2,4.8s-.2,2.4-.6,3.4c-.4,1-.9,1.9-1.5,2.6-.6.7-1.3,1.2-2.2,1.6-.8.4-1.8.7-3,.9-.5.1-1.3.2-2.5.2h-7.8Z"/>
    <path id="path17" class="cls-14" d="M376.1,268.7v7.1h.3c1.1,0,1.9-.3,2.4-1,.5-.7.8-1.7,1-3.1h.5v9.1h-.5c-.1-1-.3-1.8-.7-2.4-.3-.6-.7-1.1-1.2-1.3-.4-.2-1.1-.3-1.9-.3v4.9c0,1,0,1.5.1,1.8,0,.2.2.4.5.5.2.1.6.2,1.1.2h1c1.6,0,2.9-.4,3.9-1.1,1-.8,1.7-1.9,2.1-3.5h.5l-.8,5.5h-15.1v-.5h.6c.5,0,.9,0,1.2-.3.2-.1.4-.3.5-.6,0-.2.1-.7.1-1.6v-11.5c0-.8,0-1.3,0-1.5,0-.3-.2-.5-.5-.7-.3-.2-.8-.4-1.3-.4h-.6v-.5h14.6v5.2h-.5c-.2-1.3-.6-2.2-1-2.7-.5-.5-1.1-1-1.9-1.2-.5-.2-1.4-.2-2.7-.2h-1.8Z"/>
    <path id="path18" class="cls-14" d="M401.6,267.3v14.3c0,1.1,0,1.8.1,2.1,0,.3.3.5.6.7.3.2.8.3,1.4.3h.4v.5h-9.2v-.5h.5c.7,0,1.3,0,1.6-.3.3-.2.5-.4.6-.7.1-.3.2-1,.2-2.1v-9c0-.8,0-1.3-.1-1.5,0-.2-.2-.4-.4-.5-.2-.1-.5-.2-.7-.2-.4,0-1,.1-1.6.4l-.2-.5,6.4-2.9h.4Z"/>
    <path id="path19" class="cls-14" d="M414.2,274.6c.3-.4.6-.9.7-1.4.2-.5.2-1.1.2-1.8,0-1.1-.2-2-.7-2.6-.4-.5-.9-.7-1.5-.7s-1.1.2-1.5.6c-.4.4-.6.9-.6,1.6s.2,1.3.7,1.9c.5.7,1.3,1.4,2.7,2.3ZM411.6,277.4c-.3.2-.5.5-.6.7-.2.3-.3.7-.5,1.3-.1.6-.2,1.2-.2,1.8s.1,1.5.3,2c.2.5.5.9.9,1.2.4.2.8.4,1.2.4.6,0,1.2-.2,1.6-.7.4-.5.6-1.1.6-1.9,0-1.7-1.1-3.3-3.4-4.8ZM415.2,275.3c1.2.9,2.1,1.7,2.6,2.5.5.8.7,1.7.7,2.7s-.5,2.6-1.6,3.6c-1.1,1-2.5,1.5-4.3,1.5s-3.1-.4-4-1.3c-.9-.8-1.4-1.9-1.4-3.1s.3-1.8.8-2.5c.5-.7,1.5-1.3,2.7-1.9-1.4-1.1-2.3-1.9-2.7-2.6-.4-.7-.6-1.4-.6-2.3s.5-2.2,1.5-3.1c1-.9,2.3-1.3,4.1-1.3s2.9.4,3.8,1.2c.9.8,1.3,1.7,1.3,2.8s-.2,1.6-.7,2.2c-.5.6-1.2,1.2-2.3,1.7Z"/>
    <path id="path20" class="cls-14" d="M424.1,285.5l4.7-14.4h-3.6c-1.4,0-2.5.2-3.2.6-.5.3-.9.7-1.2,1.5h-.5l1.3-5.4h10.4l-5.9,17.8h-2Z"/>
    <path id="path21" class="cls-14" d="M434.5,278.6h5.1v-6.9l-5.1,6.9ZM433.2,278.6l8.3-11.2h1.6v11.2h1.6v2.7h-1.6v3.9h-3.5v-3.9h-6.3v-2.7Z"/>
  </g>
  <path id="path22" class="cls-14" d="M0,79.1v37.1h114.3v-37.1H0Z"/>
  <path id="path23" class="cls-14" d="M0,153.7v37.1h114.3v-37.1H0Z"/>
  <path id="path24" class="cls-14" d="M453.5,79.1v37.1h114.3v-37.1h-114.3Z"/>
  <path id="path25" class="cls-14" d="M453.5,153.7v37.1h114.3v-37.1h-114.3Z"/>
  <path id="path26" class="cls-7" d="M0,79.1h114.3"/>
  <path id="path27" class="cls-7" d="M0,116.1h114.3"/>
  <path id="path28" class="cls-7" d="M0,153.7h114.3"/>
  <path id="path29" class="cls-7" d="M0,190.8h114.3"/>
  <path id="path30" class="cls-7" d="M453.5,79.1h114.3"/>
  <path id="path31" class="cls-7" d="M453.5,116.1h114.3"/>
  <path id="path32" class="cls-7" d="M453.5,153.7h114.3"/>
  <path id="path33" class="cls-7" d="M453.5,190.8h114.3"/>
  <path id="path34" class="cls-13" d="M150.6.4v4.7h-.5c-.3-1.1-.6-1.9-.9-2.3-.3-.5-.8-.9-1.4-1.1-.3-.2-.9-.2-1.7-.2h-1.3v13.5c0,.9,0,1.4.1,1.7,0,.2.3.4.6.6.3.2.7.3,1.2.3h.6v.5h-9.1v-.5h.6c.5,0,.9,0,1.2-.3.2-.1.4-.3.5-.6,0-.2.1-.7.1-1.6V1.4h-1.3c-1.2,0-2,.2-2.6.7-.7.7-1.2,1.7-1.4,3h-.5V.4h15.7Z"/>
  <path id="path35" class="cls-13" d="M158.5,1.3v7.6h.7c1.2,0,2.1-.1,2.7-.3.6-.2,1.1-.6,1.4-1.2.3-.6.5-1.3.5-2.2,0-1.3-.3-2.3-.9-2.9-.6-.6-1.6-1-3-1h-1.4ZM158.5,9.9v4.9c0,.9,0,1.5.2,1.8.1.2.3.4.6.6.3.1.8.2,1.6.2v.5h-8.9v-.5c.8,0,1.4,0,1.6-.2.3-.2.5-.3.6-.6.1-.2.2-.8.2-1.8V3.5c0-.9,0-1.5-.2-1.8-.1-.2-.3-.4-.6-.6-.3-.1-.8-.2-1.6-.2v-.5h8.1c2.1,0,3.7.1,4.6.4,1,.3,1.8.8,2.4,1.6.6.8.9,1.7.9,2.8s-.5,2.4-1.4,3.2c-.6.5-1.4.9-2.5,1.2l4.2,5.9c.5.8.9,1.2,1.2,1.4.3.3.8.4,1.2.4v.5h-5.5l-5.6-8h-1.1Z"/>
  <path id="path36" class="cls-13" d="M180.2,17.4v.5h-9.1v-.5h.6c.5,0,.9,0,1.2-.3.2-.1.4-.3.5-.6,0-.2.1-.7.1-1.6V3.4c0-.9,0-1.4-.1-1.7,0-.2-.3-.4-.6-.6-.3-.2-.7-.3-1.2-.3h-.6v-.5h9.1v.5h-.6c-.5,0-.9,0-1.2.3-.2.1-.4.3-.5.6,0,.2-.1.7-.1,1.6v11.5c0,.9,0,1.4.1,1.7,0,.2.3.4.6.6.3.2.7.3,1.2.3h.6Z"/>
  <path id="path37" class="cls-13" d="M187.8,8.2c1.2,0,2.1-.1,2.7-.4.6-.3,1-.7,1.3-1.2.3-.5.5-1.1.5-1.9s-.2-1.4-.5-1.9c-.3-.5-.7-.9-1.3-1.1-.6-.3-1.5-.4-2.7-.4v6.9ZM187.8,9.3v6.2c0,.5.1.8.3,1,.2.2.6.4,1.1.4.7,0,1.3-.2,1.9-.5.6-.3,1-.7,1.3-1.3.3-.6.5-1.2.5-1.9s-.2-1.5-.6-2.2c-.4-.6-.9-1.1-1.6-1.4-.7-.3-1.6-.4-3-.4ZM192.5,8.6c1.7.4,2.8.9,3.5,1.4,1,.8,1.4,1.8,1.4,3s-.5,2.4-1.6,3.3c-1.3,1-3.2,1.6-5.6,1.6h-8.9v-.5c.8,0,1.4,0,1.6-.2.3-.2.5-.3.6-.6.1-.2.2-.8.2-1.8V3.5c0-.9,0-1.5-.2-1.8-.1-.2-.3-.4-.6-.6-.3-.1-.8-.2-1.6-.2v-.5h8.4c2,0,3.4.2,4.2.5.8.4,1.5.9,2,1.6.5.7.7,1.5.7,2.3s-.3,1.6-.9,2.2c-.6.7-1.7,1.2-3.2,1.6Z"/>
  <path id="path38" class="cls-13" d="M199,.4h9v.5h-.5c-.7,0-1.1,0-1.4.2-.3.1-.4.3-.5.6-.1.2-.2.9-.2,1.9v8.5c0,1.6.1,2.6.4,3.1.2.5.6.9,1.2,1.3.5.3,1.2.5,2,.5s1.7-.2,2.4-.6c.7-.4,1.2-1,1.5-1.8.3-.7.5-2,.5-3.9V3.5c0-.8,0-1.3-.2-1.7-.2-.3-.4-.6-.6-.7-.4-.2-.9-.3-1.6-.3v-.5h6v.5h-.4c-.5,0-.9,0-1.2.3-.3.2-.6.5-.7.9-.1.3-.2.8-.2,1.5v6.6c0,2-.1,3.5-.4,4.4-.3.9-.9,1.7-2,2.5-1,.8-2.5,1.1-4.3,1.1s-2.7-.2-3.5-.6c-1.1-.5-1.9-1.3-2.4-2.1-.5-.9-.7-2-.7-3.5V3.5c0-1,0-1.6-.2-1.9-.1-.2-.3-.4-.6-.6-.3-.1-.8-.2-1.5-.2v-.5Z"/>
  <path id="path39" class="cls-13" d="M224,.4l8.6,10.8V3.7c0-1-.2-1.8-.5-2.1-.4-.5-1.1-.7-2.1-.7v-.5h5.8v.5c-.7,0-1.2.2-1.5.4-.3.1-.5.4-.6.7-.1.3-.2.9-.2,1.7v14.5h-.4l-11.8-14.5v11.1c0,1,.2,1.7.7,2,.5.4,1,.5,1.6.5h.4v.5h-6.2v-.5c1,0,1.6-.2,2-.6.4-.4.6-1,.6-2V2.5l-.4-.5c-.4-.5-.7-.8-1-.9-.3-.1-.7-.2-1.2-.2v-.5h6.2Z"/>
  <path id="path40" class="cls-13" d="M247,11.9l-2.6-6-2.7,6h5.3ZM247.4,12.9h-6.2l-.7,1.7c-.2.6-.4,1-.4,1.4s.2.8.6,1.1c.2.1.8.2,1.7.3v.5h-5.8v-.5c.6,0,1.1-.4,1.5-.8.4-.4.9-1.3,1.5-2.6L245.9,0h.2l6.3,14.3c.6,1.4,1.1,2.2,1.5,2.6.3.3.7.4,1.2.5v.5h-8.4v-.5h.3c.7,0,1.2,0,1.4-.3.2-.1.3-.3.3-.6s0-.3,0-.5c0,0-.1-.4-.4-1l-.9-2.2Z"/>
  <path id="path41" class="cls-13" d="M272.1,11.7l-.7,6.1h-15.5v-.5h.6c.5,0,.9,0,1.2-.3.2-.1.4-.3.5-.6,0-.2.1-.7.1-1.6V3.4c0-.9,0-1.4-.1-1.7,0-.2-.3-.4-.6-.6-.3-.2-.7-.3-1.2-.3h-.6v-.5h9.3v.5h-.8c-.5,0-.9,0-1.2.3-.2.1-.4.3-.5.6,0,.2-.1.7-.1,1.6v11.1c0,.9,0,1.5.2,1.7.1.2.3.4.6.5.2,0,.7.1,1.6.1h1.5c.9,0,1.7-.2,2.3-.5.6-.3,1.2-.8,1.6-1.5.5-.7.9-1.7,1.3-3.1h.5Z"/>
  <path id="path42" class="cls-13" d="M285.2,1.4v13.6c0,.7,0,1.2.1,1.3,0,.2.2.3.3.4.2.1.6.2,1,.2,1.4,0,2.5-.5,3.3-1.5,1-1.3,1.5-3.4,1.5-6.1s-.4-4-1.1-5.4c-.6-1-1.3-1.8-2.1-2.1-.6-.3-1.6-.4-3.1-.4ZM278.5,17.8v-.5h.6c.5,0,.9,0,1.2-.2.3-.2.5-.4.6-.7,0-.2.1-.7.1-1.6V3.4c0-.9,0-1.4-.1-1.7,0-.2-.3-.4-.6-.6-.3-.2-.7-.3-1.2-.3h-.6v-.5h7.8c2.1,0,3.8.3,5,.9,1.6.7,2.7,1.7,3.5,3.2.8,1.4,1.2,3,1.2,4.8s-.2,2.4-.6,3.4c-.4,1-.9,1.9-1.5,2.6-.6.7-1.3,1.2-2.2,1.6-.8.4-1.8.7-3,.9-.5.1-1.3.2-2.5.2h-7.8Z"/>
  <path id="path43" class="cls-13" d="M304.4,1.4v7.1h.3c1.1,0,1.9-.3,2.4-1,.5-.7.8-1.7,1-3.1h.5v9.1h-.5c-.1-1-.3-1.8-.6-2.4-.3-.6-.7-1.1-1.2-1.3-.4-.2-1.1-.3-1.9-.3v4.9c0,1,0,1.5.1,1.8,0,.2.2.4.5.5.2.1.6.2,1.1.2h1c1.6,0,2.9-.4,3.9-1.1,1-.8,1.7-1.9,2.1-3.4h.5l-.8,5.5h-15.1v-.5h.6c.5,0,.9,0,1.2-.3.2-.1.4-.3.5-.6,0-.2.1-.7.1-1.6V3.4c0-.8,0-1.3,0-1.5,0-.3-.2-.5-.5-.7-.3-.2-.8-.4-1.3-.4h-.6v-.5h14.6v5.2h-.5c-.2-1.3-.6-2.2-1-2.7-.5-.5-1.1-1-1.9-1.2-.5-.2-1.4-.2-2.7-.2h-1.8Z"/>
  <path id="path44" class="cls-13" d="M325.1.9v-.5h9.3v.5h-.6c-.5,0-.9,0-1.2.3-.2.1-.4.3-.5.6,0,.2-.1.7-.1,1.6v8.5c0,1.7-.2,2.9-.5,3.6-.3.8-.9,1.4-1.8,1.9-.9.5-1.9.8-3.1.8s-2.7-.4-3.6-1.2c-.9-.8-1.4-1.6-1.4-2.6s.2-1.1.6-1.5c.4-.4.8-.6,1.3-.6s1,.2,1.3.5c.4.3.5.7.5,1.2s0,.4,0,.6c0,0-.2.3-.4.7-.2.3-.4.6-.4.7,0,.2.1.4.3.6.3.2.8.4,1.3.4s.7,0,.9-.3c.2-.2.4-.5.5-.9,0-.4.1-1.5.1-3.3V3.4c0-.9,0-1.4-.1-1.7,0-.2-.3-.4-.6-.6-.3-.2-.7-.3-1.2-.3h-.7Z"/>
  <path id="path45" class="cls-13" d="M335.2.4h9v.5h-.4c-.7,0-1.1,0-1.4.2-.3.1-.4.3-.5.6-.1.2-.2.9-.2,1.9v8.5c0,1.6.1,2.6.4,3.1.2.5.6.9,1.2,1.3.5.3,1.2.5,2,.5s1.7-.2,2.4-.6c.7-.4,1.2-1,1.5-1.8.3-.7.5-2,.5-3.9V3.5c0-.8,0-1.3-.2-1.7-.2-.3-.4-.6-.6-.7-.4-.2-.9-.3-1.6-.3v-.5h6v.5h-.4c-.5,0-.9,0-1.2.3-.3.2-.6.5-.7.9-.1.3-.2.8-.2,1.5v6.6c0,2-.1,3.5-.4,4.4-.3.9-.9,1.7-2,2.5-1,.8-2.5,1.1-4.3,1.1s-2.7-.2-3.5-.6c-1.1-.5-1.9-1.3-2.4-2.1-.5-.9-.7-2-.7-3.5V3.5c0-1,0-1.6-.2-1.9-.1-.2-.3-.4-.6-.6-.3-.1-.8-.2-1.5-.2v-.5Z"/>
  <path id="path46" class="cls-13" d="M366,0v5.8c.1,0-.4,0-.4,0-.2-1.5-.9-2.6-1.8-3.5-1-.9-2-1.3-3.2-1.3s-1.6.2-2.1.7c-.5.5-.8,1-.8,1.6s0,.7.3,1c.2.4.6.8,1.2,1.2.4.3,1.3.8,2.8,1.5,2,1,3.4,2,4.1,2.8.7.9,1.1,1.9,1.1,3.1s-.6,2.7-1.7,3.8c-1.1,1-2.6,1.6-4.3,1.6s-1.1,0-1.6-.2c-.5-.1-1.1-.3-1.8-.6-.4-.2-.7-.3-1-.3s-.5,0-.7.3c-.2.2-.4.4-.6.8h-.5v-6.6h.5c.4,1.9,1.1,3.3,2.2,4.2,1.1,1,2.2,1.5,3.5,1.5s1.7-.3,2.3-.8c.6-.5.9-1.1.9-1.8s-.1-.8-.3-1.2c-.2-.4-.6-.8-1-1.1-.4-.3-1.2-.8-2.4-1.4-1.6-.8-2.7-1.4-3.4-2-.7-.5-1.2-1.2-1.6-1.8-.4-.7-.6-1.4-.6-2.2,0-1.4.5-2.6,1.5-3.6,1-1,2.3-1.5,3.9-1.5s1.1,0,1.6.2c.4.1.9.3,1.5.6.6.3,1,.4,1.2.4s.4,0,.5-.2c.1-.1.2-.5.4-1h.4Z"/>
  <path id="path47" class="cls-13" d="M384.9.4v4.7h-.5c-.3-1.1-.6-1.9-.9-2.3-.3-.5-.8-.9-1.4-1.1-.3-.2-.9-.2-1.7-.2h-1.3v13.5c0,.9,0,1.4.1,1.7,0,.2.3.4.6.6.3.2.7.3,1.2.3h.6v.5h-9.1v-.5h.6c.5,0,.9,0,1.2-.3.2-.1.4-.3.5-.6,0-.2.1-.7.1-1.6V1.4h-1.3c-1.2,0-2,.2-2.6.7-.7.7-1.2,1.7-1.4,3h-.5V.4h15.7Z"/>
  <path id="path48" class="cls-13" d="M395.5,17.4v.5h-9.1v-.5h.6c.5,0,.9,0,1.2-.3.2-.1.4-.3.5-.6,0-.2.1-.7.1-1.6V3.4c0-.9,0-1.4-.1-1.7,0-.2-.3-.4-.6-.6-.3-.2-.7-.3-1.2-.3h-.6v-.5h9.1v.5h-.6c-.5,0-.9,0-1.2.3-.2.1-.4.3-.5.6,0,.2-.1.7-.1,1.6v11.5c0,.9,0,1.4.1,1.7,0,.2.3.4.6.6.3.2.7.3,1.2.3h.6Z"/>
  <path id="path49" class="cls-13" d="M406.4,17.7h.8l-.6.9c.5,0,.9.3,1.2.6.3.3.4.7.4,1.2s-.1.9-.4,1.2c-.3.4-.6.6-1,.8-.7.2-1.6.3-3,.3v-.6c.9,0,1.4-.2,1.7-.4.3-.2.5-.6.5-1s-.1-.5-.3-.6c-.2-.2-.5-.3-.9-.3l1.5-2.2ZM413.7,0v6h-.5c-.4-1.6-1.1-2.8-2.1-3.6-1-.8-2.2-1.3-3.5-1.3s-2.1.3-3,.9c-.9.6-1.6,1.4-2,2.5-.5,1.3-.8,2.7-.8,4.3s.2,3,.6,4.3c.4,1.3,1,2.3,1.9,2.9.8.7,1.9,1,3.3,1s2.1-.2,3-.7c.9-.5,1.9-1.3,2.9-2.5v1.5c-1,1-2,1.8-3.1,2.2-1.1.5-2.3.7-3.7.7s-3.5-.4-5-1.1c-1.4-.7-2.6-1.8-3.3-3.2-.8-1.4-1.2-2.9-1.2-4.5s.4-3.2,1.3-4.7c.9-1.5,2-2.6,3.5-3.5,1.5-.8,3.1-1.2,4.7-1.2s2.5.3,3.9.8c.8.3,1.3.5,1.5.5s.5-.1.7-.3c.2-.2.3-.5.4-1h.5Z"/>
  <path id="path50" class="cls-13" d="M425.6,11.9l-2.6-6-2.7,6h5.3ZM426.1,12.9h-6.2l-.7,1.7c-.2.6-.4,1-.4,1.4s.2.8.6,1.1c.2.1.8.2,1.7.3v.5h-5.8v-.5c.6,0,1.1-.4,1.5-.8.4-.4.9-1.3,1.5-2.6L424.6,0h.2l6.3,14.3c.6,1.4,1.1,2.2,1.5,2.6.3.3.7.4,1.2.5v.5h-8.4v-.5h.3c.7,0,1.2,0,1.4-.3.2-.1.3-.3.3-.6s0-.3,0-.5c0,0-.1-.4-.4-1l-.9-2.2Z"/>
  <path id="path51" class="cls-1" d="M454.4,40.5H114.3v189h340.2V40.5ZM447,47.6v174.6H121.8V47.6h325.2Z"/>
  <path id="path52" class="cls-6" d="M447,47.6v174.6H121.8V47.6h325.2Z"/>
  <path id="path53" class="cls-4" d="M145.4,56.2l3.9,8,8.8,1.3-6.4,6.2,1.5,8.8-7.9-4.1-7.9,4.1,1.5-8.8-6.4-6.2,8.8-1.3,3.9-8Z"/>
  <path id="path54" class="cls-4" d="M145.4,189.4l3.9,8,8.8,1.3-6.4,6.2,1.5,8.8-7.9-4.1-7.9,4.1,1.5-8.8-6.4-6.2,8.8-1.3,3.9-8Z"/>
  <path id="path55" class="cls-5" d="M423.3,56.2l3.9,8,8.8,1.3-6.4,6.2,1.5,8.8-7.9-4.1-7.9,4.1,1.5-8.8-6.4-6.2,8.8-1.3,3.9-8Z"/>
  <path id="path56" class="cls-5" d="M423.3,189.4l3.9,8,8.8,1.3-6.4,6.2,1.5,8.8-7.9-4.1-7.9,4.1,1.5-8.8-6.4-6.2,8.8-1.3,3.9-8Z"/>
  <path id="path57" class="cls-2" d="M284.2,26.7v147s-1.9,7.1-6,7.1l-1.5-75-1-59.5s.1-12.7,8.5-19.5Z"/>
  <path id="path58" class="cls-2" d="M284.5,26.7v147s1.9,7.1,6,7.1l1.5-75,1-59.5s-.1-12.7-8.5-19.5Z"/>
  <path id="path59" class="cls-9" d="M291.4,188.6h-14v-6.7l7.1-8.9,6.9,8.9v6.7ZM280,189.5s-5.4,1.1-12-2.1c0,0-1.6-.6-7.4-.6h-11.4c0,0-4-2.1-4.7,1.7,0,0,0,2.3-.9,3.8l-1.6,2.3s1,1.9,1.1,2.2c0,0,.6,1.5.7,2.9,0,0,.3,1.7.2,2.3,0,0-.2,3,4.4,2.3,0,0,7.4-.7,9.7-.6l8.9-.6s4.9-1.3,9.6-1.8c-.3.7-.5,1.6-.5,2.7s.3,2.6.9,3.3c-.2.2-.4.5-.5.8-.6,1.5,0,3.1,1.5,3.7-.7.3-1.2.9-1.5,1.6-.6,1.5,0,3.1,1.5,3.7-.7.3-1.2.9-1.5,1.6-.6,1.5,0,3.1,1.5,3.7-.6.3-1.2.9-1.5,1.6-.6,1.5,0,3.1,1.5,3.7-.7.3-1.2.9-1.5,1.6-.6,1.5,0,3.1,1.5,3.7-.7.3-1.2.9-1.5,1.6-.6,1.5,0,3.1,1.5,3.7-.6.3-1.2.9-1.5,1.6-.6,1.5.1,3.2,1.6,3.8l.7.3c-2,1.6-3.3,4.1-3.3,6.9,0,4.9,4,8.9,8.9,8.9s8.9-4,8.9-8.9-.4-3-1.1-4.3c0-.1.1-.3.2-.4.6-1.5,0-3.1-1.5-3.7.6-.3,1.2-.9,1.5-1.6.6-1.5,0-3.1-1.5-3.7.7-.3,1.2-.9,1.5-1.6.6-1.5,0-3.1-1.5-3.7.7-.3,1.2-.9,1.5-1.6.6-1.5,0-3.1-1.5-3.7.7-.3,1.2-.9,1.5-1.6.6-1.5,0-3.1-1.5-3.7.7-.3,1.2-.9,1.5-1.6.6-1.5,0-3.1-1.5-3.7.6-.3,1.2-.9,1.5-1.6.5-1.3,0-2.8-1.1-3.5.3-.4.5-.9.5-1.4,0-.6-.3-1.2-.7-1.7,1,0,1.7-1.7,1.7-3.9s-.2-2-.5-2.7c4.7.5,9.7,1.8,9.7,1.8l8.9.6c2.3,0,9.7.6,9.7.6,4.6.8,4.5-2.3,4.5-2.3,0-.6.2-2.3.2-2.3,0-1.4.7-2.9.7-2.9,0-.3,1.1-2.2,1.1-2.2l-1.6-2.3c-.9-1.5-.9-3.8-.9-3.8-.8-3.8-4.7-1.8-4.7-1.8h-11.4c-5.8,0-7.4.7-7.4.7-6.6,3.3-12,2.1-12,2.1v1.8c.1,0-8.9,0-8.9,0v-1.8Z"/>
  <path id="path60" class="cls-3" d="M280.2,72.9c0,.6.5,1.1,1.1,1.1s1.1-.5,1.1-1.1-.5-1.1-1.1-1.1-1.1.5-1.1,1.1Z"/>
  <path id="path61" class="cls-3" d="M288.5,72.9c0,.6-.5,1.1-1.1,1.1s-1.1-.5-1.1-1.1.5-1.1,1.1-1.1,1.1.5,1.1,1.1Z"/>
  <path id="path62" class="cls-3" d="M238.8,78.2l-1.2-3c1.1-.4,2-1.4,2.1-2.6.2-.4,1.5-2.5,10.4,1.2,0,0,9.5,4.4,19.4-.9,0,0,8.5-6.5,11.7-6.7,0,0,3,0,3.1,3.3v-.3s0,.3,0,.3c0-3.3,3.1-3.3,3.1-3.3,3.2.2,11.7,6.7,11.7,6.7,10,5.3,19.4.9,19.4.9,8.9-3.7,10.2-1.7,10.4-1.2.1,1.2,1,2.3,2.1,2.6l-1.2,3h.4l-15.8,50.3h-2.4c22.8,22.8,39.8,0,39.8,0h-2.4l-15.8-50.3h.4l-1.2-3c1.2-.4,2.1-1.5,2.1-2.9s-1.3-3-3-3-1.3.2-1.9.6c-2.3-3.1-14.4.4-14.4.4,0,0-11.2,2.5-18.8-4.3-4.6-4.1-8.5-4.1-10.7-3.5.2-.2.3-.4.3-.7,0-.3.1-.5.1-.8,0-1.4-1.1-2.5-2.5-2.5s-2.5,1.1-2.5,2.5.2,1,.5,1.4c-2.3-.5-5.9-.3-10.3,3.6-7.7,6.8-18.8,4.3-18.8,4.3,0,0-12.1-3.5-14.4-.4-.5-.4-1.2-.6-1.9-.6-1.7,0-3,1.3-3,3s.9,2.5,2.1,2.9l-1.2,3h.4l-15.8,50.3h-2.4s17,22.8,39.8,0h-2.4l-15.8-50.3h.4ZM332.7,80.1l15.2,48.5h-15.2v-48.5ZM331.3,79.9v48.7h-15.3l15.3-48.7ZM236,80.1v48.5h-15.2l15.2-48.5ZM237.5,79.9l15.3,48.7h-15.3v-48.7Z"/>
  <path id="path63" class="cls-9" d="M192.3,91.3l.7,27.7h-2.5c-1.2-6.9-4.1-12.5-8.7-16.8-4.6-4.2-9.7-6.3-15.1-6.3s-7.5,1.1-9.9,3.3c-2.4,2.2-3.6,4.8-3.6,7.7s.4,3.5,1.3,4.9c1.2,1.9,3.1,3.8,5.7,5.7,1.9,1.4,6.4,3.7,13.3,7.2,9.7,4.8,16.3,9.3,19.7,13.6,3.4,4.3,5,9.1,5,14.6s-2.7,12.9-8.1,17.9c-5.4,5-12.3,7.5-20.6,7.5s-5.1-.3-7.4-.8c-2.3-.5-5.3-1.5-8.8-3-2-.8-3.6-1.2-4.8-1.2s-2.2.4-3.4,1.2c-1.2.8-2.1,2.1-2.9,3.7h-2.3v-31.4h2.3c1.8,8.8,5.3,15.6,10.4,20.2,5.1,4.6,10.7,7,16.6,7s8.2-1.2,10.9-3.7c2.7-2.5,4.1-5.4,4.1-8.7s-.5-3.9-1.6-5.7c-1-1.8-2.6-3.6-4.8-5.2-2.1-1.7-5.9-3.8-11.3-6.5-7.6-3.7-13-6.9-16.3-9.5-3.3-2.6-5.9-5.5-7.6-8.8-1.8-3.2-2.7-6.8-2.7-10.7,0-6.6,2.4-12.3,7.3-16.9,4.9-4.7,11-7,18.4-7s5.3.3,7.8,1c1.9.5,4.3,1.4,7,2.7,2.8,1.3,4.7,2,5.8,2s1.9-.3,2.5-1c.6-.7,1.2-2.2,1.7-4.7h1.8Z"/>
  <path id="path64" class="cls-9" d="M396.2,98v35.9c1.3,0,2.4.1,3.1.1,5,0,8.8-1.5,11.5-4.4,2.7-3,4-7.6,4-13.8s-1.3-10.7-4-13.6c-2.7-2.9-6.7-4.3-12.1-4.3h-2.5ZM396.2,138.7v23.1c0,4.5.3,7.3.8,8.5.6,1.2,1.5,2.1,2.9,2.8,1.4.7,4,1,7.8,1v2.3h-42.2v-2.3c3.8,0,6.4-.4,7.8-1.1,1.4-.7,2.3-1.6,2.9-2.8.6-1.1.8-4,.8-8.5v-54c0-4.5-.3-7.3-.8-8.5-.6-1.2-1.5-2.1-2.9-2.8-1.4-.7-4-1-7.8-1v-2.3h36.2c11.9,0,20.5,2.1,25.7,6.4,5.2,4.3,7.8,9.6,7.8,15.9s-1.7,10-5,13.9c-3.4,3.8-8,6.5-13.9,7.8-4,1-10.7,1.5-20.1,1.5Z"/>
  <path id="path65" class="cls-13" d="M279,192.9h10.8v-4.5h-10.8v4.5Z"/>
  <path id="path66" class="cls-14" d="M295.7,192.6c0,.6.5,1,1,1s1-.5,1-1-.5-1-1-1-1,.5-1,1Z"/>
  <path id="path67" class="cls-14" d="M295.7,198c0,.6.5,1,1,1s1-.5,1-1-.5-1-1-1-1,.5-1,1Z"/>
  <path id="path68" class="cls-14" d="M273,192.6c0,.6-.5,1-1,1s-1-.5-1-1,.5-1,1-1,1,.5,1,1Z"/>
  <path id="path69" class="cls-14" d="M273,198c0,.6-.5,1-1,1s-1-.5-1-1,.5-1,1-1,1,.5,1,1Z"/>
  <path id="path70" class="cls-8" d="M276.9,212.1l16.2,3.7"/>
  <path id="path71" class="cls-8" d="M276.9,217.4l16.2,3.7"/>
  <path id="path72" class="cls-8" d="M276.9,222.8l16.2,3.7"/>
  <path id="path73" class="cls-8" d="M276.3,228.1l16.2,3.7"/>
  <path id="path74" class="cls-8" d="M276.3,233.5l16.2,3.7"/>
  <path id="path75" class="cls-8" d="M276.9,206.7l16.2,3.7"/>
  <path id="path76" class="cls-8" d="M276.3,238.9l16.2,3.7"/>
  <path id="path77" class="cls-11" d="M284.4,241.7c5,0,9.1,4.1,9.1,9.1h0c0,5-4.1,9.1-9.1,9.1-5,0-9.1-4.1-9.1-9.1,0-5,4.1-9.1,9.1-9.1Z"/>
  <path id="path78" class="cls-10" d="M291.9,194.4c0,1.1-1.2,2-2.7,2h-9.6c-1.5,0-2.7-.9-2.7-2v-3.2c0-1.1,1.2-2,2.7-2h9.6c1.5,0,2.7.9,2.7,2v3.2Z"/>
  <path id="path79" class="cls-10" d="M292.9,203c0,2.2-.8,3.9-1.8,3.9h-13.5c-1,0-1.8-1.8-1.8-3.9s.8-3.9,1.8-3.9h13.5c1,0,1.8,1.8,1.8,3.9Z"/>
  <path id="path80" class="cls-10" d="M292.7,197.8c0,.9-.5,1.7-1,1.7h-14.6c-.6,0-1-.8-1-1.7s.5-1.7,1-1.7h14.6c.6,0,1,.8,1,1.7Z"/>
</svg>